<svg width="580" height="260" viewBox="0 0 580 260" fill="none" xmlns="http://www.w3.org/2000/svg">
<g opacity="0.8">
<mask id="mask0_6375_44115" style="mask-type:alpha" maskUnits="userSpaceOnUse" x="321" y="0" width="259" height="253">
<rect x="321" width="259" height="253" fill="url(#paint0_radial_6375_44115)"/>
</mask>
<g mask="url(#mask0_6375_44115)">
<g opacity="0.6">
<path fill-rule="evenodd" clip-rule="evenodd" d="M481.586 -23V-3.28293C520.813 2.07667 551.17 36.3192 551.17 77.6588C551.17 122.703 515.133 159.353 470.837 159.353C426.54 159.353 390.503 122.703 390.503 77.6588C390.503 36.3192 420.86 2.07667 460.088 -3.28293V-23C410.154 -17.5484 371.268 25.432 371.268 77.6588C371.268 121.891 399.159 159.5 438.031 173.289C454.422 179.259 466.42 190.318 469.843 203.426C470.122 204.49 471.552 204.49 471.83 203.426C475.256 190.318 487.252 179.259 503.642 173.289C542.515 159.5 570.405 121.891 570.405 77.6588C570.405 25.432 531.519 -17.5484 481.586 -23Z" fill="#00D2C4" fill-opacity="0.3"/>
<path d="M481.586 -23V-3.28293C520.813 2.07667 551.17 36.3192 551.17 77.6588C551.17 122.703 515.133 159.353 470.837 159.353C426.54 159.353 390.503 122.703 390.503 77.6588C390.503 36.3192 420.86 2.07667 460.088 -3.28293V-23C410.154 -17.5484 371.268 25.432 371.268 77.6588C371.268 121.891 399.159 159.5 438.031 173.289C454.422 179.259 466.42 190.318 469.843 203.426C470.122 204.49 471.552 204.49 471.83 203.426C475.256 190.318 487.252 179.259 503.642 173.289C542.515 159.5 570.405 121.891 570.405 77.6588C570.405 25.432 531.519 -17.5484 481.586 -23" stroke="url(#paint1_linear_6375_44115)"/>
<path fill-rule="evenodd" clip-rule="evenodd" d="M470.837 119.732C447.744 119.732 429.023 100.662 429.023 77.1384C429.023 57.4023 442.22 40.8482 460.101 36.0155V15.9526C431.52 21.1237 409.811 46.5397 409.811 77.1384C409.811 111.471 437.132 139.303 470.837 139.303C504.541 139.303 531.863 111.471 531.863 77.1384C531.863 46.5397 510.153 21.1237 481.573 15.9526V36.0155C499.453 40.8482 512.651 57.4023 512.651 77.1384C512.651 100.662 493.929 119.732 470.837 119.732Z" fill="#00D2C4" fill-opacity="0.3"/>
<path d="M470.837 119.732C447.744 119.732 429.023 100.662 429.023 77.1383C429.023 57.4023 442.22 40.8482 460.101 36.0155V15.9526C431.52 21.1237 409.811 46.5397 409.811 77.1383C409.811 111.471 437.132 139.303 470.837 139.303C504.541 139.303 531.863 111.471 531.863 77.1383C531.863 46.5397 510.153 21.1237 481.573 15.9526V36.0155C499.453 40.8482 512.651 57.4023 512.651 77.1383C512.651 100.662 493.929 119.732 470.837 119.732" stroke="url(#paint2_linear_6375_44115)"/>
</g>
<g filter="url(#filter0_f_6375_44115)">
<path fill-rule="evenodd" clip-rule="evenodd" d="M481.241 -22.7762V-3.0786C520.442 2.27573 550.778 36.4845 550.778 77.7834C550.778 122.784 514.766 159.397 470.5 159.397C426.234 159.397 390.222 122.784 390.222 77.7834C390.222 36.4845 420.558 2.27573 459.759 -3.0786V-22.7762C409.859 -17.33 371 25.6081 371 77.7834C371 121.972 398.871 159.544 437.717 173.32C454.096 179.283 466.086 190.332 469.507 203.427C469.785 204.489 471.215 204.489 471.493 203.427C474.916 190.332 486.904 179.283 503.283 173.32C542.129 159.544 570 121.972 570 77.7834C570 25.6081 531.141 -17.33 481.241 -22.7762Z" stroke="url(#paint3_linear_6375_44115)"/>
<path fill-rule="evenodd" clip-rule="evenodd" d="M470.5 119.816C447.423 119.816 428.715 100.764 428.715 77.2635C428.715 57.5469 441.903 41.0091 459.771 36.1812V16.138C431.211 21.304 409.516 46.695 409.516 77.2635C409.516 111.563 436.819 139.367 470.5 139.367C504.181 139.367 531.484 111.563 531.484 77.2635C531.484 46.695 509.789 21.304 481.229 16.138V36.1812C499.097 41.0091 512.285 57.5469 512.285 77.2635C512.285 100.764 493.577 119.816 470.5 119.816Z" stroke="url(#paint4_linear_6375_44115)"/>
</g>
<path fill-rule="evenodd" clip-rule="evenodd" d="M481.241 -22.7762V-3.0786C520.442 2.27573 550.778 36.4845 550.778 77.7834C550.778 122.784 514.766 159.397 470.5 159.397C426.234 159.397 390.222 122.784 390.222 77.7834C390.222 36.4845 420.558 2.27573 459.759 -3.0786V-22.7762C409.859 -17.33 371 25.6081 371 77.7834C371 121.972 398.871 159.544 437.717 173.32C454.096 179.283 466.086 190.332 469.507 203.427C469.785 204.489 471.215 204.489 471.493 203.427C474.916 190.332 486.904 179.283 503.283 173.32C542.129 159.544 570 121.972 570 77.7834C570 25.6081 531.141 -17.33 481.241 -22.7762Z" stroke="url(#paint5_linear_6375_44115)"/>
<path fill-rule="evenodd" clip-rule="evenodd" d="M470.5 119.816C447.423 119.816 428.715 100.764 428.715 77.2635C428.715 57.5469 441.903 41.0091 459.771 36.1812V16.138C431.211 21.304 409.516 46.695 409.516 77.2635C409.516 111.563 436.819 139.367 470.5 139.367C504.181 139.367 531.484 111.563 531.484 77.2635C531.484 46.695 509.789 21.304 481.229 16.138V36.1812C499.097 41.0091 512.285 57.5469 512.285 77.2635C512.285 100.764 493.577 119.816 470.5 119.816Z" stroke="url(#paint6_linear_6375_44115)"/>
<path fill-rule="evenodd" clip-rule="evenodd" d="M481.241 -22.7762V-3.0786C520.442 2.27573 550.778 36.4845 550.778 77.7834C550.778 122.784 514.766 159.397 470.5 159.397C426.234 159.397 390.222 122.784 390.222 77.7834C390.222 36.4845 420.558 2.27573 459.759 -3.0786V-22.7762C409.859 -17.33 371 25.6081 371 77.7834C371 121.972 398.871 159.544 437.717 173.32C454.096 179.283 466.086 190.332 469.507 203.427C469.785 204.489 471.215 204.489 471.493 203.427C474.916 190.332 486.904 179.283 503.283 173.32C542.129 159.544 570 121.972 570 77.7834C570 25.6081 531.141 -17.33 481.241 -22.7762Z" stroke="url(#paint7_linear_6375_44115)"/>
<path fill-rule="evenodd" clip-rule="evenodd" d="M470.5 119.816C447.423 119.816 428.715 100.764 428.715 77.2635C428.715 57.5469 441.903 41.0091 459.771 36.1812V16.138C431.211 21.304 409.516 46.695 409.516 77.2635C409.516 111.563 436.819 139.367 470.5 139.367C504.181 139.367 531.484 111.563 531.484 77.2635C531.484 46.695 509.789 21.304 481.229 16.138V36.1812C499.097 41.0091 512.285 57.5469 512.285 77.2635C512.285 100.764 493.577 119.816 470.5 119.816Z" stroke="url(#paint8_linear_6375_44115)"/>
</g>
</g>
<rect y="60" width="580" height="200" fill="url(#paint9_linear_6375_44115)"/>
<defs>
<filter id="filter0_f_6375_44115" x="365.9" y="-27.9338" width="209.2" height="237.258" filterUnits="userSpaceOnUse" color-interpolation-filters="sRGB">
<feFlood flood-opacity="0" result="BackgroundImageFix"/>
<feBlend mode="normal" in="SourceGraphic" in2="BackgroundImageFix" result="shape"/>
<feGaussianBlur stdDeviation="2.3" result="effect1_foregroundBlur_6375_44115"/>
</filter>
<radialGradient id="paint0_radial_6375_44115" cx="0" cy="0" r="1" gradientUnits="userSpaceOnUse" gradientTransform="translate(395 21) rotate(61.1051) scale(209.022 207.932)">
<stop stop-color="#D9D9D9"/>
<stop offset="0.242018" stop-color="#737373" stop-opacity="0.5"/>
<stop offset="0.604807" stop-color="#737373" stop-opacity="0.2"/>
<stop offset="0.879878" stop-color="#737373" stop-opacity="0"/>
</radialGradient>
<linearGradient id="paint1_linear_6375_44115" x1="470.837" y1="-23" x2="470.837" y2="204.224" gradientUnits="userSpaceOnUse">
<stop stop-color="#4CFFF3"/>
<stop offset="1" stop-color="#00D2C4" stop-opacity="0.6"/>
</linearGradient>
<linearGradient id="paint2_linear_6375_44115" x1="470.837" y1="15.9526" x2="470.837" y2="139.303" gradientUnits="userSpaceOnUse">
<stop stop-color="#4CFFF3"/>
<stop offset="1" stop-color="#00D2C4" stop-opacity="0.6"/>
</linearGradient>
<linearGradient id="paint3_linear_6375_44115" x1="380.5" y1="37.5" x2="421.49" y2="70.0121" gradientUnits="userSpaceOnUse">
<stop stop-color="white"/>
<stop offset="0.368896" stop-color="#4CFFF3" stop-opacity="0.8"/>
<stop offset="1" stop-color="#2F7C77" stop-opacity="0"/>
</linearGradient>
<linearGradient id="paint4_linear_6375_44115" x1="380.5" y1="37.5" x2="421.49" y2="70.0121" gradientUnits="userSpaceOnUse">
<stop stop-color="white"/>
<stop offset="0.368896" stop-color="#4CFFF3" stop-opacity="0.8"/>
<stop offset="1" stop-color="#2F7C77" stop-opacity="0"/>
</linearGradient>
<linearGradient id="paint5_linear_6375_44115" x1="378.499" y1="25.663" x2="496.133" y2="158.906" gradientUnits="userSpaceOnUse">
<stop stop-color="#A9FFF9"/>
<stop offset="0.195589" stop-color="#4CFFF3"/>
<stop offset="1" stop-color="#2F7C77"/>
</linearGradient>
<linearGradient id="paint6_linear_6375_44115" x1="378.499" y1="25.663" x2="496.133" y2="158.906" gradientUnits="userSpaceOnUse">
<stop stop-color="#A9FFF9"/>
<stop offset="0.195589" stop-color="#4CFFF3"/>
<stop offset="1" stop-color="#2F7C77"/>
</linearGradient>
<linearGradient id="paint7_linear_6375_44115" x1="380.5" y1="37.5" x2="421.49" y2="70.0121" gradientUnits="userSpaceOnUse">
<stop stop-color="white"/>
<stop offset="0.368896" stop-color="#4CFFF3" stop-opacity="0.8"/>
<stop offset="1" stop-color="#2F7C77" stop-opacity="0"/>
</linearGradient>
<linearGradient id="paint8_linear_6375_44115" x1="380.5" y1="37.5" x2="421.49" y2="70.0121" gradientUnits="userSpaceOnUse">
<stop stop-color="white"/>
<stop offset="0.368896" stop-color="#4CFFF3" stop-opacity="0.8"/>
<stop offset="1" stop-color="#2F7C77" stop-opacity="0"/>
</linearGradient>
<linearGradient id="paint9_linear_6375_44115" x1="290" y1="65.53" x2="290" y2="224.035" gradientUnits="userSpaceOnUse">
<stop stop-color="#2E3465" stop-opacity="0"/>
<stop offset="0.457652" stop-color="#2E3465" stop-opacity="0.5"/>
<stop offset="1" stop-color="#2E3465"/>
</linearGradient>
</defs>
</svg>
