<svg width="20" height="20" viewBox="0 0 20 20" fill="none" xmlns="http://www.w3.org/2000/svg">
<path fill-rule="evenodd" clip-rule="evenodd" d="M12.8236 3.00366C10.499 3.00366 8.61454 4.88813 8.61454 7.21275C8.61454 7.55796 8.656 7.89282 8.73397 8.21288L8.73653 8.2234C8.78111 8.40641 8.81818 8.55858 8.84254 8.67974C8.86608 8.79682 8.888 8.93083 8.87899 9.06251C8.86561 9.25784 8.828 9.39206 8.73792 9.56589C8.64497 9.74528 8.48335 9.90631 8.31337 10.0757C8.29902 10.09 8.28461 10.1043 8.27017 10.1188L3.36659 15.0224C2.91166 15.4773 2.91166 16.2149 3.36659 16.6698C3.82151 17.1247 4.5591 17.1247 5.01402 16.6698L9.91761 11.7662C9.93204 11.7518 9.9464 11.7374 9.9607 11.723C10.1301 11.553 10.2911 11.3914 10.4705 11.2985C10.6443 11.2084 10.7785 11.1708 10.9739 11.1574C11.1056 11.1484 11.2396 11.1703 11.3566 11.1938C11.4778 11.2182 11.63 11.2553 11.8131 11.2999L11.8235 11.3024C12.1436 11.3804 12.4784 11.4218 12.8236 11.4218C15.1482 11.4218 17.0327 9.53736 17.0327 7.21275C17.0327 6.85974 16.9894 6.5173 16.9078 6.19025L15.2295 7.86852C15.0852 8.01288 14.9562 8.14183 14.8404 8.24018C14.7166 8.34524 14.5753 8.44441 14.3979 8.50204C14.1399 8.58589 13.8619 8.58589 13.6039 8.50204C13.4265 8.44441 13.2852 8.34524 13.1614 8.24018C13.0456 8.14183 12.9166 8.01289 12.7723 7.86854L12.1678 7.26406C12.0235 7.11973 11.8945 6.9908 11.7962 6.87495C11.6911 6.7512 11.592 6.60989 11.5343 6.43252C11.4505 6.17446 11.4505 5.89649 11.5343 5.63844C11.592 5.46106 11.6911 5.31975 11.7962 5.196C11.8945 5.08015 12.0235 4.9512 12.1679 4.80686L13.8461 3.1286C13.5191 3.04701 13.1766 3.00366 12.8236 3.00366ZM7.61454 7.21275C7.61454 4.33585 9.94673 2.00366 12.8236 2.00366C13.5871 2.00366 14.3134 2.16821 14.968 2.46425C15.1176 2.5319 15.2244 2.66865 15.2539 2.83015C15.2833 2.99165 15.2316 3.15731 15.1156 3.27339L12.8879 5.50108C12.7266 5.66232 12.6272 5.76226 12.5585 5.84318C12.4947 5.91842 12.4862 5.94479 12.4854 5.94735C12.4668 6.00456 12.4668 6.06629 12.4854 6.1235C12.4862 6.12606 12.4947 6.15253 12.5585 6.22778C12.6272 6.30869 12.7266 6.40864 12.8879 6.56988L13.4665 7.14851C13.6277 7.30975 13.7277 7.40914 13.8086 7.47784C13.8838 7.54171 13.9102 7.55013 13.9128 7.55095C13.97 7.56954 14.0317 7.56957 14.0889 7.55098C14.0915 7.55017 14.118 7.54171 14.1932 7.47784C14.2741 7.40914 14.3741 7.30975 14.5353 7.14851L16.763 4.92082C16.8791 4.80475 17.0447 4.75304 17.2062 4.78249C17.3677 4.81193 17.5045 4.91877 17.5721 5.06835C17.8682 5.72296 18.0327 6.44931 18.0327 7.21275C18.0327 10.0896 15.7005 12.4218 12.8236 12.4218C12.3981 12.4218 11.9838 12.3707 11.5868 12.274C11.3906 12.2262 11.2584 12.1941 11.1595 12.1742C11.0693 12.1561 11.0399 12.1555 11.0399 12.1552C11.0399 12.1552 11.0407 12.1552 11.0422 12.1551C10.9981 12.1581 10.9861 12.1614 10.9841 12.162C10.9824 12.1625 10.9706 12.1656 10.9306 12.1863C10.9319 12.1856 10.915 12.1939 10.8608 12.2428C10.8054 12.2928 10.7355 12.3625 10.6247 12.4733L5.72113 17.3769C4.87568 18.2223 3.50493 18.2223 2.65948 17.3769C1.81403 16.5314 1.81403 15.1607 2.65948 14.3152L7.56306 9.41166C7.67386 9.30087 7.74357 9.23094 7.79361 9.17553C7.84248 9.12142 7.85076 9.10443 7.85005 9.10581C7.87039 9.06655 7.8737 9.05461 7.87428 9.05254C7.87487 9.05047 7.8783 9.03831 7.88132 8.99421C7.88122 8.99569 7.88119 8.99651 7.88115 8.99651C7.88089 8.99651 7.88029 8.96704 7.86215 8.87683C7.84229 8.77803 7.81017 8.64577 7.76238 8.44957C7.66568 8.05262 7.61454 7.63832 7.61454 7.21275Z" fill="#B7BBD9"/>
</svg>
